<?xml version="1.0" encoding="UTF-8"?><svg xmlns="http://www.w3.org/2000/svg"><g transform="translate(100,664)"><line x1="0" y1="-566" x2="903" y2="-566" stroke="black" stroke-width="2"/><line x1="0" y1="-566" x2="0" y2="0" stroke="black" stroke-width="2"/><line x1="903" y1="-566" x2="903" y2="0" stroke="black" stroke-width="2"/><line x1="0" y1="0" x2="903" y2="0" stroke="black" stroke-width="2"/><line x1="451.5" y1="-566" x2="451.5" y2="0" stroke="black" stroke-width="2"/><rect x="397.5" y="-565" width="54" height="12" fill="green" stroke="black"/><rect x="451.5" y="-565" width="24" height="12" fill="red" stroke="black"/><text x="397.5" y="-553" text-anchor="end">Alone</text><rect x="190.5" y="-553" width="261" height="12" fill="green" stroke="black"/><rect x="451.5" y="-553" width="411" height="12" fill="red" stroke="black"/><text x="190.5" y="-541" text-anchor="end">AL AARAAF</text><rect x="376.5" y="-541" width="75" height="12" fill="green" stroke="black"/><rect x="451.5" y="-541" width="69" height="12" fill="red" stroke="black"/><text x="376.5" y="-529" text-anchor="end">ANNABEL LEE</text><rect x="400.5" y="-529" width="51" height="12" fill="green" stroke="black"/><rect x="451.5" y="-529" width="12" height="12" fill="red" stroke="black"/><text x="400.5" y="-517" text-anchor="end">A Pæan</text><rect x="436.5" y="-517" width="15" height="12" fill="green" stroke="black"/><rect x="451.5" y="-517" width="6" height="12" fill="red" stroke="black"/><text x="436.5" y="-505" text-anchor="end">A DREAM</text><rect x="430.5" y="-505" width="21" height="12" fill="green" stroke="black"/><rect x="451.5" y="-505" width="33" height="12" fill="red" stroke="black"/><text x="430.5" y="-493" text-anchor="end">A DREAM WITHIN A DREAM</text><rect x="421.5" y="-493" width="30" height="12" fill="green" stroke="black"/><rect x="451.5" y="-493" width="24" height="12" fill="red" stroke="black"/><text x="421.5" y="-481" text-anchor="end">A VALENTINE</text><rect x="418.5" y="-481" width="33" height="12" fill="green" stroke="black"/><rect x="451.5" y="-481" width="18" height="12" fill="red" stroke="black"/><text x="418.5" y="-469" text-anchor="end">Dreams</text><rect x="430.5" y="-469" width="21" height="12" fill="green" stroke="black"/><rect x="451.5" y="-469" width="33" height="12" fill="red" stroke="black"/><text x="430.5" y="-457" text-anchor="end">ELDORADO</text><rect x="421.5" y="-457" width="30" height="12" fill="green" stroke="black"/><rect x="451.5" y="-457" width="24" height="12" fill="red" stroke="black"/><text x="421.5" y="-445" text-anchor="end">EULALIE</text><rect x="445.5" y="-445" width="6" height="12" fill="green" stroke="black"/><rect x="451.5" y="-445" width="15" height="12" fill="red" stroke="black"/><text x="445.5" y="-433" text-anchor="end">Evening Star</text><rect x="433.5" y="-433" width="18" height="12" fill="green" stroke="black"/><rect x="451.5" y="-433" width="39" height="12" fill="red" stroke="black"/><text x="433.5" y="-421" text-anchor="end">Fairyland</text><rect x="421.5" y="-421" width="30" height="12" fill="green" stroke="black"/><rect x="451.5" y="-421" width="108" height="12" fill="red" stroke="black"/><text x="421.5" y="-409" text-anchor="end">FOR ANNIE</text><rect x="430.5" y="-409" width="21" height="12" fill="green" stroke="black"/><rect x="451.5" y="-409" width="21" height="12" fill="red" stroke="black"/><text x="430.5" y="-397" text-anchor="end">"The Happiest Day"</text><rect x="448.5" y="-397" width="3" height="12" fill="green" stroke="black"/><rect x="451.5" y="-397" width="24" height="12" fill="red" stroke="black"/><text x="448.5" y="-385" text-anchor="end">Hymn (translation from the Greek
        Hymn to Aristogeiton and Harmodius</text><rect x="439.5" y="-385" width="12" height="12" fill="green" stroke="black"/><rect x="451.5" y="-385" width="18" height="12" fill="red" stroke="black"/><text x="439.5" y="-373" text-anchor="end">Hymn</text><rect x="442.5" y="-373" width="9" height="12" fill="green" stroke="black"/><rect x="451.5" y="-373" width="21" height="12" fill="red" stroke="black"/><text x="442.5" y="-361" text-anchor="end">Imitation</text><rect x="412.5" y="-361" width="39" height="12" fill="green" stroke="black"/><rect x="451.5" y="-361" width="39" height="12" fill="red" stroke="black"/><text x="412.5" y="-349" text-anchor="end">"In Youth I have Known One"</text><rect x="418.5" y="-349" width="33" height="12" fill="green" stroke="black"/><rect x="451.5" y="-349" width="21" height="12" fill="red" stroke="black"/><text x="418.5" y="-337" text-anchor="end">ISRAFEL</text><rect x="307.5" y="-337" width="144" height="12" fill="green" stroke="black"/><rect x="451.5" y="-337" width="126" height="12" fill="red" stroke="black"/><text x="307.5" y="-325" text-anchor="end">LENORE</text><rect x="445.5" y="-325" width="6" height="12" fill="green" stroke="black"/><rect x="451.5" y="-325" width="15" height="12" fill="red" stroke="black"/><text x="445.5" y="-313" text-anchor="end">Marie Louise (Shew)</text><rect x="439.5" y="-313" width="12" height="12" fill="green" stroke="black"/><rect x="451.5" y="-313" width="15" height="12" fill="red" stroke="black"/><text x="439.5" y="-301" text-anchor="end">TO THE RIVER</text><rect x="448.5" y="-301" width="3" height="12" fill="green" stroke="black"/><rect x="451.5" y="-301" width="21" height="12" fill="red" stroke="black"/><text x="448.5" y="-289" text-anchor="end">ROMANCE</text><rect x="436.5" y="-289" width="15" height="12" fill="green" stroke="black"/><rect x="451.5" y="-289" width="21" height="12" fill="red" stroke="black"/><text x="436.5" y="-277" text-anchor="end">Silence</text><rect x="445.5" y="-277" width="6" height="12" fill="green" stroke="black"/><rect x="451.5" y="-277" width="24" height="12" fill="red" stroke="black"/><text x="445.5" y="-265" text-anchor="end">SONG</text><rect x="430.5" y="-265" width="21" height="12" fill="green" stroke="black"/><rect x="451.5" y="-265" width="33" height="12" fill="red" stroke="black"/><text x="430.5" y="-253" text-anchor="end">SPIRITS OF THE DEAD</text><rect x="307.5" y="-253" width="144" height="12" fill="green" stroke="black"/><rect x="451.5" y="-253" width="264" height="12" fill="red" stroke="black"/><text x="307.5" y="-241" text-anchor="end">TAMERLANE</text><rect x="436.5" y="-241" width="15" height="12" fill="green" stroke="black"/><rect x="451.5" y="-241" width="33" height="12" fill="red" stroke="black"/><text x="436.5" y="-229" text-anchor="end">The Lake</text><rect x="361.5" y="-229" width="90" height="12" fill="green" stroke="black"/><rect x="451.5" y="-229" width="141" height="12" fill="red" stroke="black"/><text x="361.5" y="-217" text-anchor="end">THE BELLS</text><rect x="388.5" y="-217" width="63" height="12" fill="green" stroke="black"/><rect x="451.5" y="-217" width="108" height="12" fill="red" stroke="black"/><text x="388.5" y="-205" text-anchor="end">THE CITY IN THE SEA.</text><rect x="424.5" y="-205" width="27" height="12" fill="green" stroke="black"/><rect x="451.5" y="-205" width="57" height="12" fill="red" stroke="black"/><text x="424.5" y="-193" text-anchor="end">The Coliseum</text><rect x="412.5" y="-193" width="39" height="12" fill="green" stroke="black"/><rect x="451.5" y="-193" width="24" height="12" fill="red" stroke="black"/><text x="412.5" y="-181" text-anchor="end">The Forest Reverie</text><rect x="388.5" y="-181" width="63" height="12" fill="green" stroke="black"/><rect x="451.5" y="-181" width="42" height="12" fill="red" stroke="black"/><text x="388.5" y="-169" text-anchor="end">The Haunted Palace</text><rect x="310.5" y="-169" width="141" height="12" fill="green" stroke="black"/><rect x="451.5" y="-169" width="171" height="12" fill="red" stroke="black"/><text x="310.5" y="-157" text-anchor="end">THE RAVEN</text><rect x="376.5" y="-157" width="75" height="12" fill="green" stroke="black"/><rect x="451.5" y="-157" width="108" height="12" fill="red" stroke="black"/><text x="376.5" y="-145" text-anchor="end">The Sleeper</text><rect x="424.5" y="-145" width="27" height="12" fill="green" stroke="black"/><rect x="451.5" y="-145" width="39" height="12" fill="red" stroke="black"/><text x="424.5" y="-133" text-anchor="end">THE VALLEY OF UNREST</text><rect x="385.5" y="-133" width="66" height="12" fill="green" stroke="black"/><rect x="451.5" y="-133" width="105" height="12" fill="red" stroke="black"/><text x="385.5" y="-121" text-anchor="end">The Village Street</text><rect x="394.5" y="-121" width="57" height="12" fill="green" stroke="black"/><rect x="451.5" y="-121" width="63" height="12" fill="red" stroke="black"/><text x="394.5" y="-109" text-anchor="end">To Isadore
</text><rect x="445.5" y="-109" width="6" height="12" fill="green" stroke="black"/><rect x="451.5" y="-109" width="15" height="12" fill="red" stroke="black"/><text x="445.5" y="-97" text-anchor="end">TO----</text><rect x="448.5" y="-97" width="3" height="12" fill="green" stroke="black"/><rect x="451.5" y="-97" width="15" height="12" fill="red" stroke="black"/><text x="448.5" y="-85" text-anchor="end">TO ——</text><rect x="436.5" y="-85" width="15" height="12" fill="green" stroke="black"/><rect x="451.5" y="-85" width="15" height="12" fill="red" stroke="black"/><text x="436.5" y="-73" text-anchor="end">(2) To Marie Louise (Shew)</text><rect x="442.5" y="-73" width="9" height="12" fill="green" stroke="black"/><rect x="451.5" y="-73" width="15" height="12" fill="red" stroke="black"/><text x="442.5" y="-61" text-anchor="end">TO SCIENCE
            A PROLOGUE TO "AL AARAAF"</text><rect x="433.5" y="-61" width="18" height="12" fill="green" stroke="black"/><rect x="451.5" y="-61" width="27" height="12" fill="red" stroke="black"/><text x="433.5" y="-49" text-anchor="end">TO F--</text><rect x="442.5" y="-49" width="9" height="12" fill="green" stroke="black"/><rect x="451.5" y="-49" width="0" height="12" fill="red" stroke="black"/><text x="442.5" y="-37" text-anchor="end">TO FRANCES S. OSGOOD </text><rect x="424.5" y="-37" width="27" height="12" fill="green" stroke="black"/><rect x="451.5" y="-37" width="30" height="12" fill="red" stroke="black"/><text x="424.5" y="-25" text-anchor="end">TO MY MOTHER</text><rect x="445.5" y="-25" width="6" height="12" fill="green" stroke="black"/><rect x="451.5" y="-25" width="6" height="12" fill="red" stroke="black"/><text x="445.5" y="-13" text-anchor="end">To Zante</text><rect x="337.5" y="-13" width="114" height="12" fill="green" stroke="black"/><rect x="451.5" y="-13" width="243" height="12" fill="red" stroke="black"/><text x="337.5" y="-1" text-anchor="end">ULALUME</text></g></svg>