<?xml version="1.0" encoding="UTF-8"?><svg xmlns="http://www.w3.org/2000/svg"><g transform="translate(100,640)"><line x1="0" y1="-602" x2="0" y2="0" stroke="black" stroke-width="2"/><line x1="0" y1="0" x2="603" y2="0" stroke="black" stroke-width="2"/><rect x="643" y="-400.0000000000000002" height="20" width="20" fill="blue" stroke="black"/><text x="668" y="-385.0000000000000002" text-anchor="start" fill="black"> - Open</text><rect x="643" y="-370.0000000000000002" height="20" width="20" fill="orange" stroke="black"/><text x="668" y="-355.0000000000000002" text-anchor="start" fill="black"> - Closed</text><text x="301.5" y="-615" font-weight="bold" font-size="24" text-anchor="middle" fill="black">Open vs. Closed on Parts of Speech</text><text x="-25" y="-600" font-weight="bold" font-size="16" text-anchor="middle" fill="black">600</text><text x="-25" y="-445" font-weight="bold" font-size="16" text-anchor="middle" fill="black">450</text><text x="-25" y="-295" font-weight="bold" font-size="16" text-anchor="middle" fill="black">300</text><text x="-25" y="-145" font-weight="bold" font-size="16" text-anchor="middle" fill="black">150</text><text x="-15" y="12" font-weight="bold" font-size="16" text-anchor="middle" fill="black">0</text><line x1="-10" y1="-450" x2="10" y2="-450" stroke="black" stroke-width="2"/><line x1="-10" y1="-300" x2="10" y2="-300" stroke="black" stroke-width="2"/><line x1="-10" y1="-150" x2="10" y2="-150" stroke="black" stroke-width="2"/><rect x="60" y="-18" width="30" height="18" stroke="black" fill="blue"/><rect x="60" y="-51" width="30" height="33" stroke="black" fill="orange"/><text x="75" y="15" text-anchor="middle">Adverb</text><rect x="150" y="-84" width="30" height="84" stroke="black" fill="blue"/><rect x="150" y="-200" width="30" height="116" stroke="black" fill="orange"/><text x="165" y="15" text-anchor="middle">Adjective</text><rect x="240" y="-204" width="30" height="204" stroke="black" fill="blue"/><rect x="240" y="-443" width="30" height="239" stroke="black" fill="orange"/><text x="255" y="15" text-anchor="middle">Verb</text><rect x="330" y="-262" width="30" height="262" stroke="black" fill="blue"/><rect x="330" y="-479" width="30" height="217" stroke="black" fill="orange"/><text x="345" y="15" text-anchor="middle">Noun</text><rect x="420" y="-153" width="30" height="153" stroke="black" fill="blue"/><rect x="420" y="-519" width="30" height="366" stroke="black" fill="orange"/><text x="435" y="15" text-anchor="middle">Preposition</text></g></svg>