<?xml version="1.0" encoding="UTF-8"?><svg xmlns="http://www.w3.org/2000/svg"><g transform="translate(100,686)"><line x1="0" y1="-638" x2="903" y2="-638" stroke="black" stroke-width="2"/><line x1="0" y1="-638" x2="0" y2="0" stroke="black" stroke-width="2"/><line x1="903" y1="-638" x2="903" y2="0" stroke="black" stroke-width="2"/><line x1="0" y1="0" x2="903" y2="0" stroke="black" stroke-width="2"/><line x1="451.5" y1="-638" x2="451.5" y2="0" stroke="black" stroke-width="2"/><rect x="943" y="-424.000000000000000212" height="20" width="20" fill="blue" stroke="black"/><text x="968" y="-409.000000000000000212" text-anchor="start" fill="black"> - Open</text><rect x="943" y="-394.000000000000000212" height="20" width="20" fill="orange" stroke="black"/><text x="968" y="-379.000000000000000212" text-anchor="start" fill="black"> - Closed</text><text x="451.5" y="-661" font-weight="bold" font-size="24" text-anchor="middle" fill="black">Total Open vs. Closed Values</text><text x="903" y="-646" font-weight="bold" font-size="16" text-anchor="middle" fill="black">150</text><text x="0" y="-646" font-weight="bold" font-size="16" text-anchor="middle" fill="black">150</text><text x="451.5" y="-641" font-weight="bold" font-size="16" text-anchor="middle" fill="black">0</text><rect x="397.5" y="-637" width="54" height="12" fill="blue" stroke="black"/><rect x="451.5" y="-637" width="24" height="12" fill="orange" stroke="black"/><text x="392.5" y="-627" text-anchor="end" font-size="12">Alone</text><rect x="190.5" y="-625" width="261" height="12" fill="blue" stroke="black"/><rect x="451.5" y="-625" width="411" height="12" fill="orange" stroke="black"/><text x="185.5" y="-615" text-anchor="end" font-size="12">AL AARAAF</text><rect x="376.5" y="-613" width="75" height="12" fill="blue" stroke="black"/><rect x="451.5" y="-613" width="69" height="12" fill="orange" stroke="black"/><text x="371.5" y="-603" text-anchor="end" font-size="12">ANNABEL LEE</text><rect x="400.5" y="-601" width="51" height="12" fill="blue" stroke="black"/><rect x="451.5" y="-601" width="12" height="12" fill="orange" stroke="black"/><text x="395.5" y="-591" text-anchor="end" font-size="12">A Pæan</text><rect x="436.5" y="-589" width="15" height="12" fill="blue" stroke="black"/><rect x="451.5" y="-589" width="6" height="12" fill="orange" stroke="black"/><text x="431.5" y="-579" text-anchor="end" font-size="12">A DREAM</text><rect x="430.5" y="-577" width="21" height="12" fill="blue" stroke="black"/><rect x="451.5" y="-577" width="33" height="12" fill="orange" stroke="black"/><text x="425.5" y="-567" text-anchor="end" font-size="12">A DREAM WITHIN A DREAM</text><rect x="421.5" y="-565" width="30" height="12" fill="blue" stroke="black"/><rect x="451.5" y="-565" width="24" height="12" fill="orange" stroke="black"/><text x="416.5" y="-555" text-anchor="end" font-size="12">A VALENTINE</text><rect x="427.5" y="-553" width="24" height="12" fill="blue" stroke="black"/><rect x="451.5" y="-553" width="15" height="12" fill="orange" stroke="black"/><text x="422.5" y="-543" text-anchor="end" font-size="12">Bridal Ballad</text><rect x="448.5" y="-541" width="3" height="12" fill="blue" stroke="black"/><rect x="451.5" y="-541" width="6" height="12" fill="orange" stroke="black"/><text x="443.5" y="-531" text-anchor="end" font-size="12">Dreamland</text><rect x="418.5" y="-529" width="33" height="12" fill="blue" stroke="black"/><rect x="451.5" y="-529" width="18" height="12" fill="orange" stroke="black"/><text x="413.5" y="-519" text-anchor="end" font-size="12">Dreams</text><rect x="430.5" y="-517" width="21" height="12" fill="blue" stroke="black"/><rect x="451.5" y="-517" width="33" height="12" fill="orange" stroke="black"/><text x="425.5" y="-507" text-anchor="end" font-size="12">ELDORADO</text><rect x="421.5" y="-505" width="30" height="12" fill="blue" stroke="black"/><rect x="451.5" y="-505" width="24" height="12" fill="orange" stroke="black"/><text x="416.5" y="-495" text-anchor="end" font-size="12">EULALIE</text><rect x="445.5" y="-493" width="6" height="12" fill="blue" stroke="black"/><rect x="451.5" y="-493" width="15" height="12" fill="orange" stroke="black"/><text x="440.5" y="-483" text-anchor="end" font-size="12">Evening Star</text><rect x="433.5" y="-481" width="18" height="12" fill="blue" stroke="black"/><rect x="451.5" y="-481" width="39" height="12" fill="orange" stroke="black"/><text x="428.5" y="-471" text-anchor="end" font-size="12">Fairyland</text><rect x="421.5" y="-469" width="30" height="12" fill="blue" stroke="black"/><rect x="451.5" y="-469" width="108" height="12" fill="orange" stroke="black"/><text x="416.5" y="-459" text-anchor="end" font-size="12">FOR ANNIE</text><rect x="430.5" y="-457" width="21" height="12" fill="blue" stroke="black"/><rect x="451.5" y="-457" width="21" height="12" fill="orange" stroke="black"/><text x="425.5" y="-447" text-anchor="end" font-size="12">"The Happiest Day"</text><rect x="448.5" y="-445" width="3" height="12" fill="blue" stroke="black"/><rect x="451.5" y="-445" width="24" height="12" fill="orange" stroke="black"/><text x="443.5" y="-435" text-anchor="end" font-size="12">Hymn (translation from the Greek
        Hymn to Aristogeiton and Harmodius</text><rect x="439.5" y="-433" width="12" height="12" fill="blue" stroke="black"/><rect x="451.5" y="-433" width="18" height="12" fill="orange" stroke="black"/><text x="434.5" y="-423" text-anchor="end" font-size="12">Hymn</text><rect x="442.5" y="-421" width="9" height="12" fill="blue" stroke="black"/><rect x="451.5" y="-421" width="21" height="12" fill="orange" stroke="black"/><text x="437.5" y="-411" text-anchor="end" font-size="12">Imitation</text><rect x="412.5" y="-409" width="39" height="12" fill="blue" stroke="black"/><rect x="451.5" y="-409" width="39" height="12" fill="orange" stroke="black"/><text x="407.5" y="-399" text-anchor="end" font-size="12">"In Youth I have Known One"</text><rect x="412.5" y="-397" width="39" height="12" fill="blue" stroke="black"/><rect x="451.5" y="-397" width="39" height="12" fill="orange" stroke="black"/><text x="407.5" y="-387" text-anchor="end" font-size="12">"In Youth I have Known One"</text><rect x="418.5" y="-385" width="33" height="12" fill="blue" stroke="black"/><rect x="451.5" y="-385" width="21" height="12" fill="orange" stroke="black"/><text x="413.5" y="-375" text-anchor="end" font-size="12">ISRAFEL</text><rect x="307.5" y="-373" width="144" height="12" fill="blue" stroke="black"/><rect x="451.5" y="-373" width="126" height="12" fill="orange" stroke="black"/><text x="302.5" y="-363" text-anchor="end" font-size="12">LENORE</text><rect x="445.5" y="-361" width="6" height="12" fill="blue" stroke="black"/><rect x="451.5" y="-361" width="15" height="12" fill="orange" stroke="black"/><text x="440.5" y="-351" text-anchor="end" font-size="12">Marie Louise (Shew)</text><rect x="439.5" y="-349" width="12" height="12" fill="blue" stroke="black"/><rect x="451.5" y="-349" width="15" height="12" fill="orange" stroke="black"/><text x="434.5" y="-339" text-anchor="end" font-size="12">TO THE RIVER</text><rect x="448.5" y="-337" width="3" height="12" fill="blue" stroke="black"/><rect x="451.5" y="-337" width="21" height="12" fill="orange" stroke="black"/><text x="443.5" y="-327" text-anchor="end" font-size="12">ROMANCE</text><rect x="436.5" y="-325" width="15" height="12" fill="blue" stroke="black"/><rect x="451.5" y="-325" width="21" height="12" fill="orange" stroke="black"/><text x="431.5" y="-315" text-anchor="end" font-size="12">Silence</text><rect x="445.5" y="-313" width="6" height="12" fill="blue" stroke="black"/><rect x="451.5" y="-313" width="24" height="12" fill="orange" stroke="black"/><text x="440.5" y="-303" text-anchor="end" font-size="12">SONG</text><rect x="430.5" y="-301" width="21" height="12" fill="blue" stroke="black"/><rect x="451.5" y="-301" width="33" height="12" fill="orange" stroke="black"/><text x="425.5" y="-291" text-anchor="end" font-size="12">SPIRITS OF THE DEAD</text><rect x="307.5" y="-289" width="144" height="12" fill="blue" stroke="black"/><rect x="451.5" y="-289" width="264" height="12" fill="orange" stroke="black"/><text x="302.5" y="-279" text-anchor="end" font-size="12">TAMERLANE</text><rect x="436.5" y="-277" width="15" height="12" fill="blue" stroke="black"/><rect x="451.5" y="-277" width="33" height="12" fill="orange" stroke="black"/><text x="431.5" y="-267" text-anchor="end" font-size="12">The Lake</text><rect x="361.5" y="-265" width="90" height="12" fill="blue" stroke="black"/><rect x="451.5" y="-265" width="141" height="12" fill="orange" stroke="black"/><text x="356.5" y="-255" text-anchor="end" font-size="12">THE BELLS</text><rect x="388.5" y="-253" width="63" height="12" fill="blue" stroke="black"/><rect x="451.5" y="-253" width="108" height="12" fill="orange" stroke="black"/><text x="383.5" y="-243" text-anchor="end" font-size="12">THE CITY IN THE SEA.</text><rect x="424.5" y="-241" width="27" height="12" fill="blue" stroke="black"/><rect x="451.5" y="-241" width="57" height="12" fill="orange" stroke="black"/><text x="419.5" y="-231" text-anchor="end" font-size="12">The Coliseum</text><rect x="415.5" y="-229" width="36" height="12" fill="blue" stroke="black"/><rect x="451.5" y="-229" width="45" height="12" fill="orange" stroke="black"/><text x="410.5" y="-219" text-anchor="end" font-size="12">The Conqueror Worm</text><rect x="412.5" y="-217" width="39" height="12" fill="blue" stroke="black"/><rect x="451.5" y="-217" width="24" height="12" fill="orange" stroke="black"/><text x="407.5" y="-207" text-anchor="end" font-size="12">The Forest Reverie</text><rect x="388.5" y="-205" width="63" height="12" fill="blue" stroke="black"/><rect x="451.5" y="-205" width="42" height="12" fill="orange" stroke="black"/><text x="383.5" y="-195" text-anchor="end" font-size="12">The Haunted Palace</text><rect x="310.5" y="-193" width="141" height="12" fill="blue" stroke="black"/><rect x="451.5" y="-193" width="171" height="12" fill="orange" stroke="black"/><text x="305.5" y="-183" text-anchor="end" font-size="12">THE RAVEN</text><rect x="376.5" y="-181" width="75" height="12" fill="blue" stroke="black"/><rect x="451.5" y="-181" width="108" height="12" fill="orange" stroke="black"/><text x="371.5" y="-171" text-anchor="end" font-size="12">The Sleeper</text><rect x="424.5" y="-169" width="27" height="12" fill="blue" stroke="black"/><rect x="451.5" y="-169" width="39" height="12" fill="orange" stroke="black"/><text x="419.5" y="-159" text-anchor="end" font-size="12">THE VALLEY OF UNREST</text><rect x="385.5" y="-157" width="66" height="12" fill="blue" stroke="black"/><rect x="451.5" y="-157" width="105" height="12" fill="orange" stroke="black"/><text x="380.5" y="-147" text-anchor="end" font-size="12">The Village Street</text><rect x="394.5" y="-145" width="57" height="12" fill="blue" stroke="black"/><rect x="451.5" y="-145" width="63" height="12" fill="orange" stroke="black"/><text x="389.5" y="-135" text-anchor="end" font-size="12">To Isadore
</text><rect x="445.5" y="-133" width="6" height="12" fill="blue" stroke="black"/><rect x="451.5" y="-133" width="15" height="12" fill="orange" stroke="black"/><text x="440.5" y="-123" text-anchor="end" font-size="12">TO----</text><rect x="448.5" y="-121" width="3" height="12" fill="blue" stroke="black"/><rect x="451.5" y="-121" width="15" height="12" fill="orange" stroke="black"/><text x="443.5" y="-111" text-anchor="end" font-size="12">TO ——</text><rect x="436.5" y="-109" width="15" height="12" fill="blue" stroke="black"/><rect x="451.5" y="-109" width="15" height="12" fill="orange" stroke="black"/><text x="431.5" y="-99" text-anchor="end" font-size="12">(2) To Marie Louise (Shew)</text><rect x="442.5" y="-97" width="9" height="12" fill="blue" stroke="black"/><rect x="451.5" y="-97" width="15" height="12" fill="orange" stroke="black"/><text x="437.5" y="-87" text-anchor="end" font-size="12">TO SCIENCE
            A PROLOGUE TO "AL AARAAF"</text><rect x="433.5" y="-85" width="18" height="12" fill="blue" stroke="black"/><rect x="451.5" y="-85" width="27" height="12" fill="orange" stroke="black"/><text x="428.5" y="-75" text-anchor="end" font-size="12">TO F--</text><rect x="442.5" y="-73" width="9" height="12" fill="blue" stroke="black"/><rect x="451.5" y="-73" width="0" height="12" fill="orange" stroke="black"/><text x="437.5" y="-63" text-anchor="end" font-size="12">TO FRANCES S. OSGOOD </text><rect x="394.5" y="-61" width="57" height="12" fill="blue" stroke="black"/><rect x="451.5" y="-61" width="63" height="12" fill="orange" stroke="black"/><text x="389.5" y="-51" text-anchor="end" font-size="12">To Isadore
</text><rect x="424.5" y="-49" width="27" height="12" fill="blue" stroke="black"/><rect x="451.5" y="-49" width="30" height="12" fill="orange" stroke="black"/><text x="419.5" y="-39" text-anchor="end" font-size="12">TO MY MOTHER</text><rect x="430.5" y="-37" width="21" height="12" fill="blue" stroke="black"/><rect x="451.5" y="-37" width="12" height="12" fill="orange" stroke="black"/><text x="425.5" y="-27" text-anchor="end" font-size="12">To One in Paradise</text><rect x="445.5" y="-25" width="6" height="12" fill="blue" stroke="black"/><rect x="451.5" y="-25" width="6" height="12" fill="orange" stroke="black"/><text x="440.5" y="-15" text-anchor="end" font-size="12">To Zante</text><rect x="337.5" y="-13" width="114" height="12" fill="blue" stroke="black"/><rect x="451.5" y="-13" width="243" height="12" fill="orange" stroke="black"/><text x="332.5" y="-3" text-anchor="end" font-size="12">ULALUME</text></g></svg>